<?xml version="1.0" encoding="UTF-8"?>
<svg id="Layer_2" data-name="Layer 2" xmlns="http://www.w3.org/2000/svg" viewBox="0 0 102.87 153.99">
  <defs>
    <style>
      .cls-1 {
        fill: #64012d;
      }

      .cls-2 {
        fill: #fff;
      }

      .cls-3 {
        opacity: .6;
      }
    </style>
  </defs>
  <g id="Layer_1-2" data-name="Layer 1">
    <g>
      <g class="cls-3">
        <path class="cls-1" d="M60.36.5l.55.9-.28,1.02.13,1.02-.2,1.02.49,1.02-.39,1.02.57,1.02-.45,1.02-.45,1.02.33,1.02.57,1.02-.35,1.02.23,1.02v1.02s.14,1.03.14,1.03l-.45,1.02.41,1.02-.37,1.02-.07,1.02.52,1.02-.43,1.02.42,1.03-.85,1.02.49,1.02.02,1.02.14,1.03-.47,1.03.52,1.02-.69,1.03.2,1.03.29,1.02-.22,1.02.29,1.02-.63,1.03.02,1.03.81,1.03-.71,1.03.22,1.03.06,1.03.13,1.02-.44,1.03.76,1.03-.25,1.03-.12,1.03.22,1.06,1.14.35.56.86.36,1.04,1.08.38.82.62.29,1.1,1.02.47.78.68.65.8.11,1.2.65.78.33.99.48.88,1.19.5.34.98.43.94-.41,1.19,1.13.86-.22,1.04-.66,1.02.23,1.02-.23,1.02.88,1.02v1.02s-.39,1.02-.39,1.02l-.21,1.02.44,1.02-.26,1.02.14,1.02-.65,1.02.03,1.03.68,1.03-.38,1.03.28,1.03-.37,1.02.33,1.03.11,1.02.13,1.02-.43,1.02.35,1.03.16,1.02-.68,1.02.32,1.03v1.03s-.04,1.03-.04,1.03l-.36,1.03.74,1.03v1.03s-.67,1.02-.67,1.02l.5,1.03v1.03s.02,1.03.02,1.03l-.66,1.02.17,1.03-.32,1.03.08,1.02.57,1.02-.39,1.02.29,1.02-.49,1.02.71,1.03.02,1.03-.24,1.03-.42,1.02.5,1.03-.32,1.02.03,1.02.31,1.02-.13,1.02.33,1.02-.54,1.02-.2,1.03.08,1.03.54,1.03-.07,1.03-.55,1.02-.13,1.03.39,1.03-.29,1.03.47,1.03.36,1.03-.13,1.03-.37,1.03.02,1.03-.42,1.03.39,1.03-.23,1.03.41,1.03-.28,1.03-.28,1.02.32,1.03-.36,1.03.61,1.03-.23,1.03-.42,1.03.75,1.03-.37,1.03-.41,1.03.9,1.03-.66,1.03-.2,1.04-.03,1,.26,1.05-.79.76-.6.79-.58.75-.29,1.07-.8.64-.84.68-1.08.04-1,.35-1.02.12-1.06-.81-1,.34-1.02-.23-1,.41-1.02-.23h-1.01s-1.01.59-1.01.59l-1.01-.79-1.01.58-1.01-.26-1.01.08-1.02.26-1.02-.19h-1.02s-1.02-.15-1.02-.15l-1.02-.02-1.02.21-1.02-.07-1.03.21-1.01-.37-1.03.08-1.03.21-.98-.67-1.02-.02-1.05.3-.99-.31-.84-.64-.94-.4-1.16-.29-.52-.99-.16-1.09-.11-1.03-.55-.94-.58-.99.61-1.13-.67-.96.4-1.06.02-1.02-.48-.99-.16-1.01.39-1.05-.69-.98-.05-1.02v-1.02s-.27-1.01-.27-1.01l.48-1.04v-1.02s-.57-1-.57-1l.55-1.04-.11-1.02.05-1.02.08-1.02.05-1.02.14-1.02-.06-1.02-.06-1.02-.57-1.02.18-1.02-.41-1.02.65-1.01v-1.02s.03-1.02.03-1.02l-.14-1.02v-1.02s-.48-1.03-.48-1.03l.78-1-.03-1.02-.34-1.03.66-1-.37-1.04-.39-1.04.02-1.02.18-1.02.29-1.01-.3-1.04.49-1.01-.54-1.05.69-1,.1-1.02.1-1.02-.13-1.03.36-1.01-.68-1.06v-1.03s.84-.99.84-.99l-.65-1.06.35-1.01.3-1.01-.03-1.03.07-1.02-.24-1.04.16-1.02.17-1.02-.12-1.03.18-1.02-.51-1.05v-1.03s.9-.99.9-.99l-.74-1.05.09-1.02.29-1.01-.15-1.03.34-1.01-.31-1.04.35-1.02.24-1.02-.24-1.03-.35-1.03.53-1.01-.11-1.03.16-1.02-.13-1.02-.33-1.03.21-1.02-.26-1.02.53-1.02.23-1.02-.17-1.02-.34-1.01.32-.98-.11-1.08.69-.8.22-1.03.39-.96,1.22-.38.19-1.11.86-.6.29-1.09,1.21-.25.82-.6.71-.72.08-1.35.77-.66,1.22-.22.59-.83.81-.63.64-.8.79-.89-.84-1.15-.08-1.02.51-1.02.28-1.02-.61-1.01.53-1.02-.68-1.02.13-1.02-.04-1.02.09-1.02.67-1.01v-1.02s-.79-1.03-.79-1.03l.3-1.01-.21-1.02.25-1.01-.38-1.02v-1.02s.08-1.01.08-1.01l.37-1.01.46-1.01-.38-1.02-.37-1.02.52-1.01-.18-1.02-.13-1.02-.05-1.02-.15-1.01.4-1.02-.55-1.01.2-1.02.49-1.03-.04-1.09-.81-.94-.12-1.05.38-1.18-.19-1.04-.82-.92.09-1.08.26-1.03-.26-1.1.92-.54.54-.96.91-.66,1.07-.09,1.11.66.98-.72,1.04.63,1.02-.45,1.02.36,1.02.18,1.05-.43,1.03-.03,1.03-.03,1,.68,1.04-.57,1.04.34.59-.18ZM50.38,47.22l-.57-1,.28-1.03-.13-1.03.2-1.03-.49-1.04.39-1.04-.57-1.04.45-1.04.45-1.04-.33-1.04-.57-1.04.35-1.04-.23-1.04v-1.04s-.14-1.04-.14-1.04l.45-1.04-.41-1.04.37-1.04.07-1.04-.52-1.04.43-1.04-.42-1.04.85-1.04-.49-1.04-.02-1.04-.14-1.04.47-1.04-.52-1.04.69-1.04-.2-1.04-.29-1.04.22-1.04-.29-1.04.63-1.04-.02-1.05-.81-1.05.43-1.35-.31,1.32-.15,1.05-.09,1.06-.65.95.53,1.19-.46.99-.33,1.01-.62.95.38,1.17-.39,1.01-.66.96.38,1.09.1,1.01-.56.98.44,1.02.16,1,.03,1-.6,1.03.12,1.01-.22,1.03v1.01s.88.95.88.95l-.05,1.02.11,1.01-.68,1.06.99.95-.16,1.03-.61,1.05.28,1-.2,1.01.89,1.01-.02,1.03-.42,1.01-.28.99.32,1.07-.43.96-.12,1.02-1.02.55-.59.71-.29,1.16-1.02.31-.64.81-1.02.28-.61.85-.72.68-.68.71-1.02.33-.44.94-.48.83-1.09.46-.12,1.13-.36,1.02-.37,1.02-.67.93.4,1.26-.29,1.04-.93.86.28,1.1v1.03s.02,1.03.02,1.03l-.66,1.03.17,1.03-.32,1.03.08,1.03.57,1.03-.39,1.04.29,1.04-.49,1.03.71,1.03.02,1.03-.24,1.03-.42,1.03.51,1.03-.32,1.03.04,1.04.32,1.04-.13,1.03.33,1.03-.54,1.03-.2,1.03.08,1.03.55,1.03-.07,1.04-.55,1.04-.12,1.03.39,1.03-.29,1.03.47,1.03.36,1.03-.13,1.03-.37,1.03.02,1.03-.41,1.04.4,1.04-.23,1.04.41,1.03-.28,1.03-.27,1.03.33,1.04-.36,1.04.61,1.04-.23,1.04-.42,1.04.75,1.04-.37,1.04-.41,1.04.91,1.04-.65,1.04-.2,1.04-.03,1.03.61,1.03-.43,1.03-.16,1.04-.05,1.04.53,1.04.04,1.04.25,1.04-.25,1.04.23,1.04.05,1.04-.86,1.04.31,1.05-.26,1.05.64,1,.1,1.07.41.98,1.02.57,1.1.71-.55-1.17.28-1.03-.07-1.03-.26-1.04.2-1.03.02-1.03.13-1.03v-1.03s-.2-1.04-.2-1.04l.06-1.03-.22-1.04.35-1.03-.11-1.04-.25-1.04.63-1.02-.04-1.03-.38-1.04.19-1.03.45-1.02-.09-1.04-.5-1.04.22-1.03.37-1.02.24-1.02-.32-1.04-.41-1.04.74-1.02-.55-1.04.51-1.03.12-1.03-.38-1.04-.07-1.03.48-1.02-.61-1.04.02-1.03.07-1.03-.21-1.04.54-1.02.06-1.03-.53-1.05.6-1.02-.07-1.04.09-1.03.11-1.03.08-1.03.17-1.03-.03-1.04-.04-1.04-.55-1.05.2-1.03-.4-1.04.66-1.02.02-1.04.03-1.04-.14-1.04v-1.03s-.49-1.04-.49-1.04l.77-1.02-.04-1.04-.35-1.04.65-1.02-.38-1.05-.4-1.05v-1.04s.17-1.03.17-1.03l.28-1.04-.32-1.05.47-1.04-.56-1.06.76-.97.22-.98.28-.96.12-1.01.65-.82-.25-1.22.44-.94,1.21-.43.03-1.22.89-.59.88-.54.69-.72.8-.59.68-.8.93-.41.96-.32.87-.53,1-.18.85-.79,1.01-.24,1.11.74.97-.83,1.03.05.99.32-.46-.83-.5-.89-1.06-.06-.93-.5-1.01-.28-1.03.26-.56-.11Z"/>
      </g>
      <path class="cls-2" d="M49.95,47.25c.33.32,5.76-.68,6.01,2.39-8.86-.8-15.99,5.15-16.69,13.97l-1.35,71.37c-1.27.49-2.39-3.96-2.39-4.2V63.48c0-.71,2-7.21,2.55-8.27,1.95-3.73,8.45-6.19,9.24-8.78,1.93-6.29-.98-19.09.24-26.2l2.39-11.43v38.46Z"/>
      <g>
        <path class="cls-1" d="M90.49,14.1l.21.95.36.93.93.77.49,1-.13,1.1-.62,1.01.16,1.06-.23,1.01-.26,1.01-.68.86.35,1.24-1.15.69.32,1.2-.55.92-.41,1,.15,1.08-.38,1.03.34,1.08-.14,1.05.16,1.06.13,1.06-.54,1.04.24,1.06-.57,1.05.77,1.06-.66,1.06.65,1.05-.2,1.06.44,1.04-.47,1.08.11,1.05.69.94-.02.98.54.81.02,1.21.91.57.45.97,1,.42.82.6.48.96.56.86.99.42.9.53.56.86.51.89.88.59.08,1.17,1.33.35-.14,1.23,1.06.63-.52,1.28.67.83.26.97.31.99-.63.99.28,1.06.13,1.04-.15,1.02-.46,1,.72,1.07-.74,1-.1,1.03.62,1.05-.4,1.02.2,1.03.17,1.03-.36,1.03-.04,1.03.17,1.03-.52,1.03.13,1.03.68,1.02-.65,1.04.27,1.02-.25,1.04.68,1.01-.83,1.06.54,1.01-.33,1.04.84,1,.06,1.03-.46,1.05-.32,1.04-.02,1.03.59,1,.43,1.01-.18,1.04.29,1.02-.13,1.04-.64,1.07.48,1.01-.34,1.05-.03,1.04.29,1.02.75,1-.85,1.08.48,1.01.03,1.03-.02,1.04.08,1.03-.17,1.04.71,1.01-.59,1.06.05,1.03.38,1.02.22,1.03-.3,1.04.38,1.03-.86,1.05.9,1.02-.7,1.04.13,1.03-.04,1.03-.13,1.03.41,1.03.33,1.04-.89,1.02.38,1.04-.33,1.02.6,1.05.08,1.04-.4,1.01.05,1.04-.38,1.01.54,1.07-.88.96.28,1.06-.19,1.01.22,1.06-.34.99.25,1.07-.39.96-.32.96-.84.79.43,1.22-.47.92-1.11.5-.15,1.12-1.01.4-.76.58-.8.56-.77.81-1.03.26-1.09-.34-1,.16-.99.33-1.01.15-1.04-.38-1.01.12-1.02-.15-1,.67-1.03-.43-1.01.57-1.03-.52-1.02.54-1.03-.24-1.02-.33h-1.02s-1.02-.21-1.02-.21l-1.03.35-1.02-.22-1.03.13-1.03.07-1-.29-.96-.39-1.14.26-1.15-.06-.59-1.23-1.17-.16-.85-.69-.48-1.01-.64-.85-.77-.81-.12-1.12-.72-.89-.25-1.06-.33-1.04.41-1.15-.26-1v-1.03s-.66-.97-.66-.97l.31-1.06.06-1.03-.37-1,.55-1.06-.73-.99.52-1.05-.03-1.02-.29-1.02-.29-1.02v-1.03s-.18-1.02-.18-1.02l.35-1.03-.2-1.03-.12-1.03-.1-1.03.6-1.02-.07-1.02-.53-1.03.36-1.02-.24-1.03.24-1.02-.24-1.03.7-1.01-.73-1.05.84-1-.76-1.06.16-1.02.2-1.02.44-1.01.04-1.03.04-1.03-.62-1.06.93-.99-.44-1.05.42-1.01-.74-1.07.52-1.01-.39-1.05.16-1.02.68-1,.17-1.02-.66-1.06.66-1-.37-1.05-.13-1.04-.14-1.04v-1.03s.14-1.03.14-1.03l.33-1.02-.06-1.03.19-1.02.44-1.02-.17-1.04-.31-1.04-.04-1.03.53-1.02-.21-1.03-.55-1.03.02-1.03.2-1.03.68-1.03.04-1.03-.96-1.02.68-1.04-.11-1.03-.59-1.01.34-1.04.16-1.03.25-1.04-.1-1.03-.4-1,.02-1.03-.27-1.01.39-.98-.2-1.1.6-.91.46-.92.35-.96.15-1.08.41-.96,1.15-.48.27-1.06,1.01-.5.29-1.1.62-.84.86-.6.89-.55.58-.89.64-.85.91-.51,1.16-.17.56-.97,1.26-.45-.16-1.11-.17-1.03-.29-1.03.35-1.04.03-1.03.21-1.03-.35-1.02-.23-1.03.35-1.04-.65-1.02.32-1.04.08-1.03.2-1.04-.18-1.03.19-1.04-.43-1.02-.34-1.03-.16-1.03.21-1.04-.17-1.03.17-1.03.14-1.03.12-1.04.17-1.04-.59-1.02.44-1.05.08-1.04-.19-1.03.3-1.04-.74-1.02-.12-1.04.46-1.05.25-.71.63-.31.97-.31.98-.27,1.03.52,1,.03.98-.24.96-.52,1.03.49.97-.44.98-.32.99-.15,1.05.75.95-.79,1.03-.08.97.5ZM81.22,49.23l.27-1.01.07-1.02-.64-1.02-.28-1.02.21-1.02.57-1.02-.32-1.02v-1.02s-.05-1.02-.05-1.02l.36-1.02-.76-1.01.84-1.02-.68-1.02.3-1.02.23-1.02-.25-1.02.31-1.02-.4-1.02.09-1.02-.21-1.02-.17-1.02.51-1.03-.26-1-1.11-.04-.33,1.26-1.22.55.63,1.04-.23,1.04.39,1.04-.53,1.04.02,1.04.55,1.04-.3,1.04.12,1.04-.67,1.03.34,1.03-.34,1.03.41,1.04.13,1.04-.37,1.04-.24,1.04.38,1.04.27,1.04-.18,1.04-.19,1.04.32,1.04-.61,1.05.93,1.05-1.34.52-.47,1.14-1.38-.24-.63.9-.81.62-.72.74-1.14.23-.53.96-.59.86-.76.68-.97.52v1.28s-1.15.46-1.15.46l-.58.87.13,1.21-.73.79-.11,1.03-.07,1.02-.52.93-.17,1.02.05,1.04-.62.98.03,1.04.59,1.08-.73.99.19,1.05-.32,1.02.61,1.06-.9,1.01.48,1.04-.39,1.02.79,1.04v1.03s-.5,1.03-.5,1.03l-.37,1.03-.07,1.03.55,1.03.39,1.03-.22,1.03.25,1.03-.17,1.04-.67,1.05.45,1.03-.37,1.05-.06,1.04.27,1.03.72,1.02-.87,1.06.46,1.03.02,1.04-.04,1.04.07,1.04-.18,1.04.71,1.01-.59,1.05.05,1.03.39,1.03.23,1.03-.29,1.04.38,1.02-.84,1.06.92,1-.64,1.1.27,1.04.16,1.05.09,1.06.63.94.54.98-.71,1.17.49,1-.27,1.06.66,1.04.13,1.06-.36,1.06.1,1.06-.34,1.05.59,1.07-.82,1.04.35,1.06-.11,1.05.32,1.06-.23,1.05.39,1.06-.22,1.05-.08,1.05-.55,1.08.77,1.03-.14,1-.69,1.04.88.75,1.09.45.04-1.13-.09-1.03-.46-1.04v-1.03s.51-1.02.51-1.02l-.03-1.03-.23-1.03-.06-1.03.46-1.02-.05-1.03.2-1.02-.62-1.04.48-1.02-.53-1.04.55-1.02-.51-1.04.25-1.02.34-1.02v-1.03s.21-1.02.21-1.02l-.36-1.03.2-1.02-.17-1.03-.12-1.03.22-1.02.29-1.02-.47-1.03-.3-1.03.86-1.01-.51-1.03-.04-1.03.32-1.02-.03-1.03-.27-1.03.36-1.02-.37-1.03.05-1.02-.1-1.03.59-1.01-.12-1.03.13-1.02-.55-1.04.42-1.02.16-1.03-.28-1.03.63-1.02-.65-1.04.59-1.02.03-1.03-.24-1.03-.24-1.03.05-1.03-.16-1.03.38-1.02-.17-1.03-.1-1.03-.08-1.03.61-1.02-.06-1.03-.53-1.04.37-1.02-.24-1.03.23-1.03-.25-1.03.69-1.02-.75-1.05.82-1.02-.78-1.05.14-1.03.18-1.03.42-1.03v-1.04s.03-1.03.03-1.03l-.42-1.14,1.18-.67v-1.12s.85-.68.85-.68l-.03-1.3,1.03-.5.41-1.06.85-.64,1.2-.18.89-.51.46-1.16h1.2s.71-.87.71-.87l.87-.6.91-.57,1-.37,1.05-.19,1.09.09,1.03-.2,1.05.15-.05-1.25-1.15-.33-1.08.14-1.04-.15-.69-.86-.65-.56Z"/>
        <path class="cls-2" d="M81.07,49.24c.75,2.25,4.95.7,4.8,2.99-5.95-.35-14.6,5.49-15.55,11.5l-1.28,75.04c-2.1.28-1.13-2.73-1.19-4.19-.23-5.61.29-11.28.05-16.89-.12-2.85-1.22-5.47-1.3-8.31-.35-12.22-1.46-33.03.15-44.41,1.37-9.66,11.91-13.56,11.91-14.53v-22.84c0-.21,1.62-1.89,2.4-1.8v23.44Z"/>
        <path class="cls-1" d="M13.51,8.58l.74-.9,1.07-.68.73-.79.97.29.93.17.93-.57.92.25,1.03-.09,1.04.38,1.02.08,1.06-.12.93.49.89.52.6.81.33,1.01-.71,1.02-.02,1.02.27,1.02v1.02s.5,1.02.5,1.02l-.19,1.02.37,1.02-.68,1.02.55,1.02-.62,1.02.5,1.02-.48,1.02.33,1.02-.09,1.02-.49,1.02.97,1.02-.19,1.02.17,1.02.02,1.02-.74,1.02.59,1.02-.29,1.02-.43,1.02.89,1.02-.52,1.02.06,1.02.15,1.02-.39,1.02.31,1.02-.33,1.02.41,1.02.24,1.03-.63,1.02.6,1.03-.05,1.02-.13,1.03-.05,1.03-.32,1.03.1,1.03.82.73.78.69.09,1.32,1.08.43.37,1.07,1.11.4.5.96.65.82,1.09.46.77.74.22,1.15.4.99.82.71-.02,1.15.59.87.47.92.69.85.28,1-.17,1.14,1.01.78-.46,1.2.64.91-.2,1.1.66.92.2,1.02.33,1,.09,1.04-.4,1.09.84.95-.65,1.1.65.99-.54,1.07.43,1.02v1.04s.38,1.03.38,1.03l.12,1.04-.12,1.04.15,1.05-.91,1,.63,1.07-.03,1.04-.16,1.03-.52,1-.14,1.03.26,1.06.18,1.06-.71.97-.03,1.04-.37,1,.32,1.08.34,1.08-.64.98-.48.99.65,1.11-.58.98.24,1.07-.38,1-.37,1.01.7,1.1-.71.98-.06,1.04.61,1.08-.05,1.03-.19,1.02-.86,1,.17,1.04-.03,1.03.74,1.02-.05,1.02.08,1.02-.62,1.06.69.98-.49,1.06.44,1-.32,1.06-.11,1.04.8.96-.45,1.07.27,1.01-.13,1.05.62.98.38,1-.51,1.08.49.99.2,1.02-.51,1.08.3,1.01-.25,1.05.36,1.01.53,1.01-.17,1.04-.38,1.04.03,1.03-.19,1.02.34,1.04-.59.99-.03,1.02.23,1.05-.32.98-.2,1.03-.53.91-.33,1.06-1.11.4-.72.68-.74.94-1.02.32-1.08-.15-1.03.09-1.06-.24-1.04-.12-1,.49-1.04-.07-1.03.13-1.02.27-1.05-.33-1.03.03-1.03-.06-1.02.74-1.06-.74-1.03.49-1.04-.4-1.03.25-1.04.49-1.04-.56-1.04-.07-1.05.64-1.04-.09-1.02-.47-1.05.29-1-.71-1.08.65-.96-.74-.97-.16h-1.3s-.49-1.19-.49-1.19l-.56-1.01-.85-.63-.52-.93-.08-1.05-.58-.96.56-1.12-.56-.98.11-1.05-.44-1.02.36-1.05-.34-1.03.67-1.04-.08-1.03-.07-1.03-.42-1.04.08-1.03-.06-1.04.78-1.01-.14-1.04-.23-1.05.48-1.02-.74-1.08.52-1.02.25-1.03.2-1.03-.08-1.05-.37-1.07-.2-1.05,1-.98-.21-1.06.25-1.03-.14-1.05.26-1.02-.35-1.05.14-1.03.19-1.03-.47-1.04.39-1.03-.02-1.03v-1.03s.22-1.04.22-1.04l-.27-1.02-.13-1.02-.64-.98.06-1.04.29-1.06.17-1.05-.77-.96.59-1.09-1-.94.02-1.04.45-1.08-.15-1.02-.65-.97.69-1.1-.14-1.02-.56-.98.36-1.06-.36-1-.02-1.03-.16-1.02-.61-.99.64-1.07-.49-1,.44-1.04-.1-1.02-.06-1.02-.45-1.02.05-1.03.53-1.01-.27-1.03-.19-1.04.37-1,.22-1.01-.16-1.05-.14-1.06.22-1.01.83-.9.1-1.02-.36-1.13.98-.82.31-.97.04-1.04.17-1.01.05-1.06.36-.96.61-.87-.08-1.14.56-.88.94-.69.54-.87.35-.96-.11-1.23.83-.71.74-.76.73-.75.07-1.31.9-.67.99-.56.64-.92.85-.7,1.03-.52.09-1.03-.06-1.02.55-1.02-.45-1.02.84-1.02-.26-1.02-.23-1.02.05-1.02-.42-1.02.28-1.02-.39-1.02.29-1.02.4-1.02-.38-1.02-.09-1.02.22-1.02.35-1.02.03-1.02.16-1.02-.62-1.02.29-1.02-.09-1.02-.52-1.02.83-1.02-.25-1.02.31-1.02-.78-1.02.09-1.02.58-1.02-.67-1.02.14-1.02.27-1.02.16-1.02-.59-1.03.5-1.02.35-1.03-.33-1.02-.22-1.03-.1-1.03-.04-1.07.53-.82ZM21.74,17.1l-1.1.23-.96-.14-.96.67-.96-.38-1.01-.19.67,1.06-.1,1.06.17,1.01-.34,1.04-.02,1.01.26,1.02-.2,1.01v1.02s-.17,1-.17,1l.22,1.05-.83.92-.15,1,.13,1.05-.16,1.01.36,1.08-.34.98.22,1.06-.8.92.43,1.07-.72.95.41,1.05-.54.98.35,1.05.04,1.05-.29,1.14,1.18.82.06,1.07.39,1,.19,1.07-.68,1.1.44,1.12-.74.81-.94.5v1.33s-1.08.35-1.08.35l-.67.74-.61.8-.99.41-.5.92-.94.48-.39,1-.48.89-1.11.38-.05,1.15-.55.86-.59.84-.49.9-.71.81-.3,1-.08,1.06-.19,1.01-1.08.75.22,1.13-.67.91.33,1.12-.44.97-.2,1.01.4,1.09.03,1.03-.6.97-.31,1.01.27,1.04-.57,1.02.2,1.04.1,1.03.37,1.02-.03,1.03-.47,1.05.8.99-.69,1.08.48,1-.35,1.07.55.98.11,1.02.27,1.01.06,1.03-.41,1.09.85.94-.61,1.11.7.95-.47,1.1.52.98.09,1.03.5.98.24,1.01v1.04s.3,1,.3,1l-.76,1.11.78.95.12,1.02v1.03s-.39,1.05-.39,1.05v1.01s.39,1.02.39,1.02l.31,1.03-.59,1.06.09,1.04-.25,1.04.44,1.03.46,1.04-.53,1.04-.38,1.04.75,1.05-.49,1.03.33,1.04-.3,1.03-.3,1.03.77,1.06-.65,1.02v1.04s.65,1.06.65,1.06v1.04s-.17,1.04-.17,1.04l-.84,1.02.18,1.04-.04,1.04.71,1.05-.09,1.04.03,1.04-.67,1.04.63,1.04-.55,1.04.38,1.03-.39,1.05-.16,1.05.27.96.68-.9-.02-1.04.38-.97-.37-1.08-.13-1.05.75-.92-.24-1.07.04-1.03.74-.92-.07-1.04.47-.96-.15-1.05-.32-1.08.35-.98.55-.96.13-1.02.31-1-.26-1.06.61-.98v-1.04s-.31-1.04-.31-1.04l.19-1.02-.08-1.03.09-1.03-.32-1.02.54-1.04-.13-1.03-.69-1-.17-1.02.25-1.04-.02-1.03.28-1.05.13-1.04-.49-1,.05-1.03-.15-1.02-.3-1,.29-1.05-.08-1.02v-1.03s-.79-.96-.79-.96l.68-1.09-.56-.99.33-1.06-.32-1.01-.57-.99.48-1.07v-1.03s-.75-.98-.75-.98v-1.04s.37-1.06.37-1.06l-.39-1.01.6-1.07-.78-.99.59-1.06-.06-1.03-.62-1.01.54-1.04.18-1.03-.43-1.03-.17-1.03.19-1.03-.38-1.05.75-1-.4-1.05.26-1.02-.29-1.06.5-.99-.19-1.07.82-.92.09-1.02.11-1.02-.21-1.1.3-.99.19-1.02,1.02-.75.17-1.02.13-1.05.81-.75-.23-1.28.95-.62.77-.67.76-.66.58-.83.4-1.02.54-.9,1.38-.04.54-.9.86-.57.59-.85.86-.58.4-1.02.72-.73.64-.91-.44-1.05.31-1.04-.14-1.02-.13-1.02.05-1.06-.43-.96-.29-.99-.78-.88-.08-1.04.18-1.08.11-1.04-.76-.95.65-1.03-.93-.98.1-1.01.54-1.01-.06-1-.55-1,.81-.99-.03-1-.44-1.01.49-.99-.23-1.02.12-1v-1.01s-.45-1.06-.45-1.06l.82-.92-.29-1.06.66-.9.16-.98.24-.95.31-.97.98-.17,1.08.1-.03-1.39Z"/>
        <path class="cls-2" d="M21.6,17.44c.47,1.97-1.82.47-2.37,2.04-1.55,4.42-1.4,14.06-1.21,18.97.12,3.26,2.32,9.29,1.89,12.1-.26,1.71-7.61,7.33-9.37,10.5-8.61,15.59.51,47.33-2.1,65.2l-2.44,16.17c-.48-11.37.58-22.93.04-34.3-.75-15.58-6.68-34.57,2.1-49.48,1.87-3.17,7.95-7.6,8.49-9.64.65-2.43-1.28-6.13-1.14-9.34.3-6.92,2.86-15.33,1.3-22.23h4.81Z"/>
      </g>
    </g>
  </g>
</svg>