<?xml version="1.0" encoding="UTF-8"?>
<svg id="Layer_2" data-name="Layer 2" xmlns="http://www.w3.org/2000/svg" viewBox="0 0 399.81 451.99">
  <defs>
    <style>
      .cls-1 {
        fill: #b84d44;
      }
    </style>
  </defs>
  <g id="Layer_1-2" data-name="Layer 1">
    <g>
      <g>
        <path class="cls-1" d="M156.13,100.68c-.05-.16-.11-.3-.16-.46-.23-.6-.46-1.19-.7-1.78-.38-.93-.78-1.85-1.2-2.76-.99-2.25-2.12-4.45-3.32-6.59-2.92-5.16-6.4-9.98-10.39-14.37-.89-1-1.82-1.97-2.77-2.92-1.96-1.94-4.02-3.79-6.17-5.55-15.5-12.6-36.01-19.62-58.9-17.57C16.27,53.68-16.43,114.75,8.44,165.19c12.27,24.86,34.48,39.1,58.26,43.06,1.87.33,3.75.57,5.63.76,24.83,2.4,50.61-6.18,68.05-25.44,2.54-2.8,4.9-5.82,7.05-9.07.18-.27.36-.53.53-.8,2.86-4.42,5.33-9.24,7.38-14.48.01-.02.01-.03.02-.05.9-2.31,1.69-4.64,2.35-6.95.04-.08.07-.16.08-.23,5.23-17.89,4.18-35.67-1.66-51.31ZM41.58,166.37c-23.68-24.99-19.04-65.75,10.64-83.52,25.98-15.54,54.88-7.06,70.72,12.45.8.99,1.58,2.01,2.31,3.07.09.12.17.25.25.37,7.29,10.56,10.93,23.78,8.8,37.94-.32,2.1-.76,4.22-1.33,6.38-.43,1.6-.93,3.21-1.52,4.82-1.55,4.29-3.57,8.21-5.98,11.76-18.49,27.27-59.77,32.19-83.89,6.73Z"/>
        <path class="cls-1" d="M75.62,102.31c41.86-6.54,41.91,59.83,0,53.31-28.96-4.5-29.12-48.76,0-53.31Z"/>
      </g>
      <g>
        <path class="cls-1" d="M311.13,48.77c-17.51,1.57-32.75,8.57-44.67,18.98-2.06,1.81-4.02,3.71-5.88,5.7-.32.35-.65.7-.96,1.06-4.93,5.5-9.08,11.66-12.36,18.25-.91,1.84-1.76,3.7-2.53,5.61-.1.24-.19.49-.29.73h0c-6.56,16.51-7.84,35.23-2.42,53.34.11.42.23.81.36,1.21h.02c.68,2.17,1.46,4.34,2.35,6.49.7,1.73,1.48,3.45,2.32,5.16,1.53,3.12,3.24,6.08,5.09,8.86.1.16.21.31.32.47,2.22,3.33,4.64,6.41,7.26,9.26,18.68,20.48,46.29,28.57,72.1,24.67.92-.14,1.84-.29,2.75-.46,25.39-4.7,48.64-21.1,59.4-48.83,22.16-57.06-21.85-115.91-82.86-110.5ZM370.08,148c-13.44,37.21-62.61,47.25-89.87,18.47-2.04-2.15-3.87-4.42-5.48-6.78-4.35-6.33-7.21-13.31-8.59-20.5h0c-.17-.88-.32-1.75-.44-2.64v-.06c-1.79-12.16.58-24.68,6.9-35.27.55-.97,1.16-1.9,1.79-2.84h0c.07-.12.15-.23.23-.33,4.1-5.9,9.51-11.07,16.22-15.08,44.13-26.44,96.75,16.54,79.24,65.03Z"/>
        <path class="cls-1" d="M314.25,102.42c41.86-6.54,41.91,59.83,0,53.31-28.96-4.5-29.12-48.76,0-53.31Z"/>
      </g>
      <path class="cls-1" d="M266.14,139.19h0c-.17-.88-.32-1.75-.44-2.64v-.06c-1.79-12.16.58-24.68,6.9-35.27.55-.97,1.16-1.9,1.79-2.84h0c.07-.12.15-.23.23-.33-3.6-8.68-8.69-16.65-15-23.54-11.77-12.88-27.8-22.01-46.33-25.02-6.77-1.09-13.88-1.37-21.24-.72-1.74.15-3.45.36-5.14.63-15.35,2.35-28.79,8.96-39.53,18.35-2.06,1.8-4.02,3.7-5.87,5.7-.39.42-.77.84-1.15,1.27-4.85,5.44-8.93,11.52-12.18,18.04-.97,1.96-1.86,3.95-2.68,5.98,7.29,10.56,10.93,23.78,8.8,37.94-.32,2.1-.76,4.22-1.33,6.38-.43,1.6-.93,3.21-1.52,4.82-1.55,4.29-3.57,8.21-5.98,11.76.76,1.9,1.6,3.78,2.52,5.65,1.36,2.78,2.86,5.42,4.5,7.94.19.31.39.62.6.93,2.23,3.38,4.66,6.52,7.29,9.41,15.78,17.51,38.08,26.07,60.27,25.94-11.75-17.92-30.58-31.05-53.22-35.01.18-.27.36-.53.53-.8,2.86-4.42,5.33-9.24,7.38-14.48-4.18-6.2-6.93-13.02-8.28-20.03v-.02c-.17-.87-.31-1.74-.44-2.63v-.06c-1.79-12.16.59-24.68,6.9-35.27.55-.94,1.13-1.86,1.75-2.77.01-.02.03-.04.04-.06v-.02c4.13-6.03,9.63-11.32,16.45-15.4,27.26-16.33,57.76-6.18,72.97,15.41,9.41,13.35,12.97,31.08,6.28,49.62-1.6,4.44-3.72,8.5-6.26,12.15.7,1.73,1.48,3.45,2.32,5.16,1.53,3.12,3.24,6.08,5.09,8.86.1.16.21.31.32.47-22.35,4.13-40.38,17.34-51.71,34.88,4.01-.03,8.02-.35,11.99-.95,17.65-2.66,34.45-10.93,46.98-24.67,2.97-3.25,5.7-6.8,8.13-10.66,2.65-4.16,4.95-8.67,6.86-13.54-4.35-6.33-7.21-13.31-8.59-20.5Z"/>
      <g>
        <path class="cls-1" d="M200.71,209.59s-.04-.05-.06-.08c-11.75-17.92-30.58-31.05-53.22-35.01-1.84-.34-3.71-.6-5.61-.8-3.05-.32-6.16-.48-9.33-.47-2.41,0-4.85.13-7.32.35-25.27,2.25-45.8,15.82-58.47,34.67-.17.25-.34.5-.51.76-15.1,23.01-18.63,53.63-5.1,81.09,13.95,28.26,40.73,42.82,68.06,44.12.68.03,1.37.05,2.05.07,26.83.63,53.87-11.47,69.53-35.84.65-1.02,1.28-2.05,1.88-3.11.81-1.39,1.57-2.81,2.31-4.28,1.12-2.24,2.15-4.58,3.09-6.99,10.37-26.69,6.25-53.77-7.3-74.48ZM94.24,291.28c-23.68-24.98-19.06-65.75,10.64-83.51,38.16-22.86,82.68,6.21,82.68,45.84v.53c-.06,6.03-1.16,12.3-3.45,18.66-13.44,37.22-62.61,47.25-89.87,18.48Z"/>
        <path class="cls-1" d="M128.28,227.22c41.86-6.54,41.91,59.83,0,53.31-28.96-4.5-29.12-48.76,0-53.31Z"/>
      </g>
      <g>
        <path class="cls-1" d="M334.91,208.56c-.1-.15-.21-.31-.32-.46-14.3-20.83-38.32-34.86-66.72-34.87-2.57,0-5.17.12-7.81.35-1.63.14-3.24.33-4.83.58-.93.14-1.84.29-2.75.47-22.35,4.13-40.38,17.34-51.71,34.88-.03.03-.04.05-.06.08-8.36,12.95-13.06,28.26-13.15,44.02v.53c0,12.01,2.67,24.28,8.44,35.96.15.31.3.61.46.91.74,1.47,1.53,2.91,2.35,4.3.62,1.08,1.25,2.12,1.92,3.14,15.83,24.42,42.34,36.25,68.64,35.85.91-.01,1.82-.04,2.73-.08,29.63-1.39,58.45-18.31,70.82-50.15,10.52-27.13,6.11-54.68-8.01-75.51ZM319,272.8c-13.44,37.22-62.6,47.25-89.86,18.48-23.68-24.98-19.06-65.75,10.63-83.51,44.13-26.42,96.73,16.54,79.23,65.03Z"/>
        <path class="cls-1" d="M263.17,227.22c41.86-6.54,41.91,59.83,0,53.31-28.96-4.5-29.12-48.76,0-53.31Z"/>
      </g>
      <g>
        <path class="cls-1" d="M272.1,334.22c-.75-1.46-1.56-2.89-2.4-4.29-13.15-21.92-36.58-37.35-64.78-38.87-.66-.04-1.32-.07-1.98-.09-1.25-.05-2.52-.06-3.8-.03-.89,0-1.78.03-2.68.07-1.31.05-2.63.14-3.95.26-27.02,2.41-48.6,17.75-60.98,38.64-.84,1.41-1.63,2.85-2.38,4.31-11.28,21.9-12.81,49-.71,73.56,30.41,61.66,122.06,58.05,146.92-6.01,9.24-23.81,6.97-47.92-3.26-67.55ZM251.45,390.48c-13.44,37.23-62.6,47.25-89.86,18.49-23.68-24.99-19.06-65.74,10.63-83.52,44.13-26.42,96.73,16.54,79.23,65.03Z"/>
        <path class="cls-1" d="M195.62,344.91c41.86-6.54,41.91,59.83,0,53.31-28.96-4.5-29.12-48.76,0-53.31Z"/>
      </g>
      <path class="cls-1" d="M200.1,74.8c-7.28,0-13.19-6.2-13.19-13.85V13.85c0-7.65,5.9-13.85,13.19-13.85s13.19,6.2,13.19,13.85v47.09c0,7.65-5.9,13.85-13.19,13.85Z"/>
    </g>
  </g>
</svg>